<?xml version="1.0" encoding="utf-8"?>
<!-- Generator: Adobe Illustrator 17.1.0, SVG Export Plug-In . SVG Version: 6.00 Build 0)  -->
<!DOCTYPE svg PUBLIC "-//W3C//DTD SVG 1.1//EN" "http://www.w3.org/Graphics/SVG/1.1/DTD/svg11.dtd">
<svg version="1.1"
	 id="svg3025" xmlns:svg="http://www.w3.org/2000/svg" xmlns:rdf="http://www.w3.org/1999/02/22-rdf-syntax-ns#" xmlns:dc="http://purl.org/dc/elements/1.1/" xmlns:sodipodi="http://sodipodi.sourceforge.net/DTD/sodipodi-0.dtd" xmlns:inkscape="http://www.inkscape.org/namespaces/inkscape" xmlns:cc="http://creativecommons.org/ns#" sodipodi:docname="book_font_awesome.svg" inkscape:version="0.48.3.1 r9886"
	 xmlns="http://www.w3.org/2000/svg" xmlns:xlink="http://www.w3.org/1999/xlink" x="0px" y="0px" viewBox="0 0 612 792"
	 enable-background="new 0 0 612 792" xml:space="preserve">
<sodipodi:namedview  inkscape:zoom="0.13169643" inkscape:cy="896" guidetolerance="10" showgrid="false" objecttolerance="10" inkscape:cx="896" gridtolerance="10" borderopacity="1" bordercolor="#666666" pagecolor="#ffffff" id="namedview3031" inkscape:window-height="480" inkscape:window-width="640" inkscape:pageshadow="2" inkscape:pageopacity="0" inkscape:current-layer="svg3025" inkscape:window-maximized="0" inkscape:window-y="25" inkscape:window-x="0">
	</sodipodi:namedview>
<g id="g3027" transform="matrix(1,0,0,-1,53.152542,1270.2373)">
	<path id="path3029" inkscape:connector-curvature="0" fill="#494848" d="M537.1,1032.3c9.1-13,11.2-27.7,6.1-44.1l-93.9-309.4
		c-4.3-14.6-13-26.8-26.1-36.7c-13.1-9.9-27-14.9-41.8-14.9H66.1c-17.5,0-34.4,6.1-50.7,18.3c-16.3,12.2-27.6,27.2-34,44.9
		c-5.5,15.3-5.7,29.7-0.7,43.4c0,0.9,0.3,4,1,9.2c0.7,5.2,1.1,9.4,1.4,12.6c0.2,1.8-0.1,4.3-1,7.3c-0.9,3.1-1.3,5.3-1,6.7
		c0.5,2.5,1.4,4.9,2.7,7.2s3.2,5,5.6,8c2.4,3.1,4.3,5.7,5.6,8c5.2,8.7,10.4,19.1,15.4,31.2s8.4,22.6,10.2,31.2
		c0.7,2.3,0.7,5.7,0.2,10.2c-0.6,4.6-0.6,7.7-0.2,9.6c0.7,2.5,2.6,5.7,5.8,9.6c3.2,3.9,5.1,6.5,5.8,7.9c4.8,8.2,9.6,18.7,14.3,31.4
		s7.6,23,8.5,30.7c0.2,2-0.1,5.7-0.9,10.9c-0.8,5.2-0.7,8.4,0.2,9.6c0.9,3,3.4,6.4,7.5,10.4c4.1,4,6.6,6.5,7.5,7.7
		c4.3,5.9,9.2,15.5,14.5,28.9c5.4,13.3,8.5,24.3,9.4,33c0.2,1.8-0.1,4.7-1,8.7c-0.9,4-1.1,7-0.7,9.1c0.5,1.8,1.5,3.9,3.1,6.1
		c1.6,2.3,3.6,4.9,6.1,7.9s4.4,5.4,5.8,7.2c1.8,2.7,3.7,6.2,5.6,10.4c1.9,4.2,3.6,8.2,5.1,12c1.5,3.8,3.3,7.9,5.5,12.3
		s4.4,8.1,6.7,10.9c2.3,2.8,5.3,5.5,9.1,8c3.8,2.5,7.9,3.8,12.3,3.9c4.4,0.1,9.8-0.5,16.2-1.9l-0.3-1c8.7,2,14.5,3.1,17.4,3.1h259.9
		c16.8,0,29.8-6.4,38.9-19.1c9.1-12.8,11.2-27.5,6.1-44.4l-93.6-309.4c-8.2-27.1-16.3-44.6-24.4-52.4s-22.7-11.8-43.9-11.8H30.6
		c-6.1,0-10.5-1.7-13-5.1c-2.5-3.6-2.6-8.5-0.3-14.7C22.8,679,39.2,671,66.5,671h315.2c6.6,0,13,1.8,19.1,5.3
		c6.1,3.5,10.1,8.3,12,14.2l102.5,337.1c1.6,5,2.2,11.5,1.7,19.5C525.6,1043.6,532.3,1038.7,537.1,1032.3z M173.7,1031.6
		c-0.9-3-0.7-5.5,0.7-7.7s3.6-3.2,6.8-3.2h207.6c3,0,5.9,1.1,8.7,3.2s4.7,4.7,5.6,7.7l7.2,21.9c0.9,3,0.7,5.5-0.7,7.7
		c-1.4,2.2-3.6,3.2-6.8,3.2H195.2c-3,0-5.9-1.1-8.7-3.2s-4.7-4.7-5.6-7.7L173.7,1031.6z M145.4,944.2c-0.9-3-0.7-5.5,0.7-7.7
		c1.4-2.2,3.6-3.2,6.8-3.2h207.6c3,0,5.9,1.1,8.7,3.2c2.8,2.2,4.7,4.7,5.6,7.7l7.2,21.9c0.9,3,0.7,5.5-0.7,7.7
		c-1.4,2.2-3.6,3.2-6.8,3.2H166.9c-3,0-5.9-1.1-8.7-3.2c-2.8-2.2-4.7-4.7-5.6-7.7L145.4,944.2z"/>
</g>
</svg>
